<?xml version="1.0" encoding="utf-8"?>
<!-- Generator: Adobe Illustrator 23.1.0, SVG Export Plug-In . SVG Version: 6.00 Build 0)  -->
<svg version="1.1" id="Layer_1" xmlns="http://www.w3.org/2000/svg" xmlns:xlink="http://www.w3.org/1999/xlink" x="0px" y="0px"
	 viewBox="0 0 190.8 148.6" style="enable-background:new 0 0 190.8 148.6;" xml:space="preserve">
<style type="text/css">
	.st0{fill:#FFFFFF;}
</style>
<g>
	<path class="st0" d="M190.8,101.4c0,13.1-4,23.8-12,31.8c-10,10.1-25.8,15.2-47,15.2L32,148.6h0v-24.2h13.5v-4.7
		c-8-1.3-15.2-3-21.3-4.5v33.4l-24.1,0V16.2h24.4h7.5V0h8H126c49,0,52.8,32.3,52.8,42.2c0,9.3-3.5,17.5-7.3,23.6
		C183.8,73.5,190.8,86.3,190.8,101.4z M182.8,101.4c0-12.8-6.6-26.6-23.4-32.6c6-6.8,11.4-16.4,11.4-26.6S166.6,8,126,8H39.9v8H126
		c24.2,0,36.8,9,36.8,26.2c0,9-5.8,18.4-12.2,24.4c-3.8-0.6-7.8-1-12.4-1h-0.4c0.1,1.1,0.1,2.1,0.1,3c0,1.7-0.1,3.3-0.2,5h0.5
		c23,0,36.6,10.4,36.6,27.8c0,21-14,31-43,31H61.4v-10.6c-2.7-0.2-5.4-0.5-8-0.9v11.5H39.9v8h91.9
		C174,140.4,182.8,119.2,182.8,101.4z M131.8,124.4c30.8,0,35-11.6,35-23c0-17.2-17.9-19.8-28.6-19.8h-1.8
		c-4.9,20.9-22.6,40.8-60.5,40.8c-2.2,0-4.4-0.1-6.5-0.1v2.1C69.4,124.4,131.8,124.4,131.8,124.4z M147.6,58.1
		c3.9-4.5,7.2-10.5,7.2-15.9c0-5,0-18.2-28.8-18.2h-14.6c17,8.5,23.3,22.4,25.5,33.6h1.3C141.4,57.6,144.5,57.8,147.6,58.1z
		 M129.9,68.6c0-1,0-2-0.1-3c-0.1-2.5-0.5-5.2-1.1-8c-3.6-15.6-16.5-33.4-56.6-33.4h-64v116.2h8v-35.8c6,1.8,16.6,4.8,29.3,7
		c2.6,0.4,5.3,0.9,8,1.2c2.6,0.3,5.3,0.7,8,0.9c2.6,0.2,5.3,0.4,8,0.5c2.2,0.1,4.3,0.2,6.5,0.2c32,0,47.5-15.3,52.3-32.8
		c0.7-2.6,1.2-5.3,1.5-8C129.8,71.9,129.9,70.3,129.9,68.6z"/>
	<path class="st0" d="M121.8,65.6c0.1,1,0.1,2,0.1,3c0,1.7-0.1,3.4-0.3,5c-0.3,2.8-0.9,5.5-1.8,8c-5.3,15.7-20.9,24.8-44,24.8
		c-2.2,0-4.4-0.1-6.5-0.2c-2.7-0.1-5.4-0.3-8-0.6c-2.7-0.3-5.4-0.6-8-0.9c-2.8-0.4-5.4-0.8-8-1.3c-13.6-2.4-24.5-5.7-29.3-7.3v-64
		h56c27.1,0,43.6,8.7,48.3,25.4C121.2,60.1,121.6,62.8,121.8,65.6z M113.9,68.6c0-0.8,0-1.8-0.1-3c-0.1-2.3-0.5-5.1-1.7-8
		c-3.3-8.3-12.8-17.4-40-17.4h-48v50.1c5.1,1.5,12.6,3.4,21.3,5.1c2.6,0.5,5.2,0.9,8,1.3c2.6,0.4,5.3,0.7,8,1c2.6,0.3,5.3,0.5,8,0.6
		c2.2,0.1,4.3,0.2,6.5,0.2c9.2,0,28.3-1.9,35.3-16.8c1.1-2.3,1.9-5,2.3-8C113.8,72,113.9,70.4,113.9,68.6z"/>
</g>
</svg>
