<?xml version="1.0" encoding="utf-8"?>
<!-- Generator: Adobe Illustrator 23.1.0, SVG Export Plug-In . SVG Version: 6.00 Build 0)  -->
<svg version="1.1" id="Layer_1" xmlns="http://www.w3.org/2000/svg" xmlns:xlink="http://www.w3.org/1999/xlink" x="0px" y="0px"
	 viewBox="0 0 190.8 148.6" style="enable-background:new 0 0 190.8 148.6;" xml:space="preserve">
<style type="text/css">
	.st0{fill:#FFFFFF;}
	.st1{fill:#99E6D8;}
</style>
<g id="logo">
	<g id="XMLID_1_">
		<path d="M190.8,101.4c0,13.1-4,23.8-12,31.8c-10,10.1-25.8,15.2-47,15.2L32,148.6h0v-24.2h13.5v-4.7c-8-1.3-15.2-3-21.3-4.5v33.4
			l-24.1,0V16.2h24.4h7.5V0h8H126c49,0,52.8,32.3,52.8,42.2c0,9.3-3.5,17.5-7.3,23.6C183.8,73.5,190.8,86.3,190.8,101.4z
			 M182.8,101.4c0-12.8-6.6-26.6-23.4-32.6c6-6.8,11.4-16.4,11.4-26.6S166.6,8,126,8H39.9v8H126c24.2,0,36.8,9,36.8,26.2
			c0,9-5.8,18.4-12.2,24.4c-3.8-0.6-7.8-1-12.4-1h-0.4c0.1,1.1,0.1,2.1,0.1,3c0,1.7-0.1,3.3-0.2,5h0.5c23,0,36.6,10.4,36.6,27.8
			c0,21-14,31-43,31H61.4v-10.6c-2.7-0.2-5.4-0.5-8-0.9v11.5H39.9v8h91.9C174,140.4,182.8,119.2,182.8,101.4z M131.8,124.4
			c30.8,0,35-11.6,35-23c0-17.2-17.9-19.8-28.6-19.8h-1.8c-4.9,20.9-22.6,40.8-60.5,40.8c-2.2,0-4.4-0.1-6.5-0.1v2.1
			C69.4,124.4,131.8,124.4,131.8,124.4z M147.6,58.1c3.9-4.5,7.2-10.5,7.2-15.9c0-5,0-18.2-28.8-18.2h-14.6
			c17,8.5,23.3,22.4,25.5,33.6h1.3C141.4,57.6,144.5,57.8,147.6,58.1z M129.9,68.6c0-1,0-2-0.1-3c-0.1-2.5-0.5-5.2-1.1-8
			c-3.6-15.6-16.5-33.4-56.6-33.4h-64v116.2h8v-35.8c6,1.8,16.6,4.8,29.3,7c2.6,0.4,5.3,0.9,8,1.2c2.6,0.3,5.3,0.7,8,0.9
			c2.6,0.2,5.3,0.4,8,0.5c2.2,0.1,4.3,0.2,6.5,0.2c32,0,47.5-15.3,52.3-32.8c0.7-2.6,1.2-5.3,1.5-8
			C129.8,71.9,129.9,70.3,129.9,68.6z"/>
		<path class="st0" d="M159.4,68.8c16.8,6,23.4,19.8,23.4,32.6c0,17.8-8.8,39-51,39H39.9v-8h13.5v-11.5c2.6,0.3,5.3,0.6,8,0.9v10.6
			h70.4c29,0,43-10,43-31c0-17.4-13.6-27.8-36.6-27.8h-0.5c0.1-1.7,0.2-3.3,0.2-5c0-0.9,0-1.9-0.1-3h0.4c4.6,0,8.6,0.4,12.4,1
			c6.4-6,12.2-15.4,12.2-24.4C162.8,25,150.2,16,126,16H39.9V8H126c40.6,0,44.8,24,44.8,34.2S165.4,62,159.4,68.8z"/>
		<path class="st0" d="M166.8,101.4c0,11.4-4.2,23-35,23H69.4v-2.1c2.2,0.1,4.3,0.1,6.5,0.1c37.9,0,55.5-19.9,60.5-40.8h1.8
			C148.9,81.6,166.8,84.2,166.8,101.4z"/>
		<path class="st0" d="M154.8,42.2c0,5.4-3.3,11.4-7.2,15.9c-3.2-0.4-6.3-0.5-9.4-0.5h-1.3c-2.2-11.2-8.5-25.1-25.5-33.6H126
			C154.8,24,154.8,37.2,154.8,42.2z"/>
		<path class="st1" d="M129.8,65.6c0.1,1,0.1,2.1,0.1,3c0,1.7-0.1,3.3-0.3,5c-0.3,2.7-0.7,5.4-1.5,8c-4.8,17.5-20.3,32.8-52.3,32.8
			c-2.2,0-4.4-0.1-6.5-0.2c-2.7-0.1-5.4-0.3-8-0.5c-2.7-0.2-5.4-0.6-8-0.9c-2.7-0.4-5.4-0.8-8-1.2c-12.7-2.2-23.3-5.2-29.3-7v35.8
			h-8V24.2h64c40.1,0,53,17.8,56.6,33.4C129.4,60.4,129.7,63.1,129.8,65.6z M121.9,68.6c0-1,0-2-0.1-3c-0.2-2.8-0.6-5.5-1.3-8
			C115.7,41,99.3,32.2,72.1,32.2h-56v64c4.7,1.5,15.7,4.8,29.3,7.3c2.6,0.5,5.3,0.9,8,1.3c2.6,0.4,5.3,0.7,8,0.9
			c2.6,0.3,5.3,0.4,8,0.6c2.2,0.1,4.3,0.2,6.5,0.2c23,0,38.7-9.1,44-24.8c0.8-2.5,1.4-5.2,1.8-8C121.8,72,121.9,70.3,121.9,68.6z"/>
		<path d="M121.8,65.6c0.1,1,0.1,2,0.1,3c0,1.7-0.1,3.4-0.3,5c-0.3,2.8-0.9,5.5-1.8,8c-5.3,15.7-20.9,24.8-44,24.8
			c-2.2,0-4.4-0.1-6.5-0.2c-2.7-0.1-5.4-0.3-8-0.6c-2.7-0.3-5.4-0.6-8-0.9c-2.8-0.4-5.4-0.8-8-1.3c-13.6-2.4-24.5-5.7-29.3-7.3v-64
			h56c27.1,0,43.6,8.7,48.3,25.4C121.2,60.1,121.6,62.8,121.8,65.6z M113.9,68.6c0-0.8,0-1.8-0.1-3c-0.1-2.3-0.5-5.1-1.7-8
			c-3.3-8.3-12.8-17.4-40-17.4h-48v50.1c5.1,1.5,12.6,3.4,21.3,5.1c2.6,0.5,5.2,0.9,8,1.3c2.6,0.4,5.3,0.7,8,1
			c2.6,0.3,5.3,0.5,8,0.6c2.2,0.1,4.3,0.2,6.5,0.2c9.2,0,28.3-1.9,35.3-16.8c1.1-2.3,1.9-5,2.3-8C113.8,72,113.9,70.4,113.9,68.6z"
			/>
		<path class="st0" d="M113.8,65.6c0.1,1.2,0.1,2.2,0.1,3c0,1.8-0.1,3.4-0.3,5c-0.4,3-1.2,5.7-2.3,8c-7,14.9-26.1,16.8-35.3,16.8
			c-2.2,0-4.4-0.1-6.5-0.2c-2.7-0.1-5.4-0.3-8-0.6c-2.7-0.3-5.4-0.6-8-1c-2.8-0.4-5.4-0.9-8-1.3c-8.7-1.6-16.1-3.6-21.3-5.1V40.2h48
			c27.3,0,36.8,9.1,40,17.4C113.3,60.5,113.7,63.3,113.8,65.6z"/>
	</g>
</g>
</svg>
