<?xml version="1.0" encoding="utf-8"?>
<!-- Generator: Adobe Illustrator 23.1.0, SVG Export Plug-In . SVG Version: 6.00 Build 0)  -->
<svg version="1.1" id="Layer_1" xmlns="http://www.w3.org/2000/svg" xmlns:xlink="http://www.w3.org/1999/xlink" x="0px" y="0px"
	 viewBox="0 0 190.8 148.6" style="enable-background:new 0 0 190.8 148.6;" xml:space="preserve">
<style type="text/css">
	.st0{fill:#FFFFFF;}
</style>
<path class="st0" d="M113.8,65.6c-0.1-2.3-0.5-5.1-1.7-8c-3.3-8.3-12.8-17.4-40-17.4h-48v50.1c5.1,1.5,12.6,3.4,21.3,5.1
	c2.6,0.5,5.2,0.9,8,1.3c2.6,0.4,5.3,0.7,8,1c2.6,0.3,5.3,0.5,8,0.6c2.2,0.1,4.3,0.2,6.5,0.2c9.2,0,28.3-1.9,35.3-16.8
	c1.1-2.3,1.9-5,2.3-8c0.3-1.7,0.4-3.3,0.4-5.1C113.9,67.8,113.9,66.8,113.8,65.6z M107.6,72.7l0,0.3c-0.3,2.3-0.9,4.4-1.8,6.2
	C100.1,91.2,83,92.5,75.9,92.5c-2,0-3.9-0.1-6-0.2l-0.2,0c-2.6-0.1-5.2-0.3-7.6-0.6c-2.6-0.3-5.3-0.6-7.8-1
	c-2.5-0.4-5.1-0.8-7.8-1.3c-5.6-1.1-11.4-2.4-16.4-3.8V46.2h42c13.2,0,30,2.4,34.4,13.6c0.8,1.9,1.2,3.8,1.3,6l0,0.2
	c0.1,1,0.1,1.8,0.1,2.5C107.9,70.2,107.8,71.4,107.6,72.7z M113.8,65.6c-0.1-2.3-0.5-5.1-1.7-8c-3.3-8.3-12.8-17.4-40-17.4h-48v50.1
	c5.1,1.5,12.6,3.4,21.3,5.1c2.6,0.5,5.2,0.9,8,1.3c2.6,0.4,5.3,0.7,8,1c2.6,0.3,5.3,0.5,8,0.6c2.2,0.1,4.3,0.2,6.5,0.2
	c9.2,0,28.3-1.9,35.3-16.8c1.1-2.3,1.9-5,2.3-8c0.3-1.7,0.4-3.3,0.4-5.1C113.9,67.8,113.9,66.8,113.8,65.6z M107.6,72.7l0,0.3
	c-0.3,2.3-0.9,4.4-1.8,6.2C100.1,91.2,83,92.5,75.9,92.5c-2,0-3.9-0.1-6-0.2l-0.2,0c-2.6-0.1-5.2-0.3-7.6-0.6
	c-2.6-0.3-5.3-0.6-7.8-1c-2.5-0.4-5.1-0.8-7.8-1.3c-5.6-1.1-11.4-2.4-16.4-3.8V46.2h42c13.2,0,30,2.4,34.4,13.6
	c0.8,1.9,1.2,3.8,1.3,6l0,0.2c0.1,1,0.1,1.8,0.1,2.5C107.9,70.2,107.8,71.4,107.6,72.7z M171.5,65.8c3.8-6.1,7.3-14.3,7.3-23.6
	C178.8,32.3,175,0,126,0H32v16.2H0.1v132.4h24.1v-33.4c6.1,1.5,13.3,3.2,21.3,4.5v4.7H32v24.2l99.8-0.2c21.2,0,37-5.1,47-15.2
	c8-8,12-18.7,12-31.8C190.8,86.3,183.8,73.5,171.5,65.8z M45.1,113.6c-8.8-1.5-17.7-3.6-27-6.3v35.1h-12V22.2h66
	c41.7,0,54.9,19,58.6,35c0.7,3.1,1,5.8,1.1,8.3c0.1,1.1,0.1,2.1,0.1,3.1c0,1.7-0.1,3.2-0.2,4.8l0,0.4c-0.3,2.9-0.8,5.6-1.6,8.3
	c-6,21.8-25.7,34.3-54.2,34.3c-2.1,0-4.1-0.1-6.3-0.2l-0.3,0c-2.7-0.1-5.5-0.3-8.1-0.5c-1.9-0.1-3.8-0.4-5.7-0.6
	c-0.8-0.1-1.6-0.2-2.4-0.3c-2-0.2-3.9-0.5-5.8-0.9C46.6,113.8,45.8,113.7,45.1,113.6z M111.4,24H126c28.8,0,28.8,13.2,28.8,18.2
	c0,5.4-3.3,11.4-7.2,15.9c-3.1-0.3-6.2-0.5-9.4-0.5h-1.3C134.7,46.4,128.4,32.5,111.4,24z M136.4,81.6h1.8
	c10.7,0,28.6,2.6,28.6,19.8c0,11.4-4.2,23-35,23H69.4v-2.1c2.1,0,4.3,0.1,6.5,0.1C113.8,122.4,131.5,102.5,136.4,81.6z M131.8,142.4
	H37.9v-12h13.5v-11.8l2.3,0.4c2.5,0.4,5.1,0.7,7.8,0.9l1.9,0.1v10.5h68.4c28,0,41-9.2,41-29c0-16.4-12.6-25.8-34.6-25.8h-2.6
	l0.1-2.4c0.1-1.6,0.2-3,0.2-4.6c0-0.9,0-1.8-0.1-2.8l-0.2-2.2h2.6c3.9,0,7.7,0.3,11.7,0.9c5.2-5.1,10.9-13.7,10.9-22.3
	c0-16.1-11.7-24.2-34.8-24.2H37.9V6H126c42.2,0,46.8,25.3,46.8,36.2c0,11-5.7,20.2-10.1,25.8c13.9,6,22.1,18.3,22.1,33.4
	C184.8,120.1,175.6,142.4,131.8,142.4z M61.4,97.7c2.6,0.3,5.3,0.5,8,0.6c2.2,0.1,4.3,0.2,6.5,0.2c9.2,0,28.3-1.9,35.3-16.8
	c1.1-2.3,1.9-5,2.3-8c0.3-1.7,0.4-3.3,0.4-5.1c0-0.8,0-1.8-0.1-3c-0.1-2.3-0.5-5.1-1.7-8c-3.3-8.3-12.8-17.4-40-17.4h-48v50.1
	c5.1,1.5,12.6,3.4,21.3,5.1c2.6,0.5,5.2,0.9,8,1.3C56,97.1,58.7,97.4,61.4,97.7z M30.1,85.7V46.2h42c13.2,0,30,2.4,34.4,13.6
	c0.8,1.9,1.2,3.8,1.3,6l0,0.2c0.1,1,0.1,1.8,0.1,2.5c0,1.6-0.1,2.8-0.3,4.1l0,0.3c-0.3,2.3-0.9,4.4-1.8,6.2
	C100.1,91.2,83,92.5,75.9,92.5c-2,0-3.9-0.1-6-0.2l-0.2,0c-2.6-0.1-5.2-0.3-7.6-0.6c-2.6-0.3-5.3-0.6-7.8-1
	c-2.5-0.4-5.1-0.8-7.8-1.3C40.9,88.4,35.1,87.1,30.1,85.7z"/>
</svg>
